<?xml version="1.0" encoding="utf-8"?>
<!-- Generator: Adobe Illustrator 17.0.0, SVG Export Plug-In . SVG Version: 6.00 Build 0)  -->
<svg version="1.2" baseProfile="tiny" xmlns="http://www.w3.org/2000/svg" xmlns:xlink="http://www.w3.org/1999/xlink" x="0px"
	 y="0px" width="40px" height="40px" viewBox="0 0 40 40" xml:space="preserve">
<g id="Layer_1">
	<g>
		<path d="M16.406,13.041l2.542,2.542C18.765,14.257,17.732,13.222,16.406,13.041z"/>
		<path d="M26.99,16c0-1.66-1.33-3-2.99-3c-1.66,0-3,1.34-3,3s1.34,3,3,3C25.66,19,26.99,17.66,26.99,16z"/>
		<path d="M24.377,21.011L30.366,27H31v-2.5C31,22.288,26.797,21.124,24.377,21.011z"/>
		<path d="M9,24.5V27h14v-2.057l5.085,5.085l1.311-1.31L10.941,10.263l-1.31,1.31l3.524,3.525C13.064,15.384,13,15.682,13,16
			c0,1.66,1.34,3,3,3c0.317,0,0.616-0.064,0.902-0.156l2.787,2.788C18.395,21.212,16.988,21,16,21C13.67,21,9,22.17,9,24.5z"/>
	</g>
</g>
<g id="Layer_3">
</g>
<g id="Layer_4">
	<polyline points="39.678,6.361 37.616,13.953 30.024,11.89 	"/>
	<path fill="none" stroke="#000000" stroke-width="3" stroke-miterlimit="10" d="M35.502,9.922C32.201,4.856,26.497,1.5,20,1.5
		C9.783,1.5,1.5,9.783,1.5,20c0,10.217,8.283,18.5,18.5,18.5c6.585,0,12.351-3.451,15.629-8.632"/>
</g>
</svg>
