<?xml version="1.0" encoding="utf-8"?>
<!-- Generator: Adobe Illustrator 17.0.0, SVG Export Plug-In . SVG Version: 6.00 Build 0)  -->
<svg version="1.2" baseProfile="tiny" id="Layer_1" xmlns="http://www.w3.org/2000/svg" xmlns:xlink="http://www.w3.org/1999/xlink"
	 x="0px" y="0px" width="964.413px" height="455.674px" viewBox="0 0 964.413 455.674" xml:space="preserve">
<g>
	<circle fill="#231815" cx="935.986" cy="426.926" r="28.748"/>
	<circle fill="#231815" cx="935.826" cy="28.586" r="28.587"/>
	<circle fill="#231815" cx="28.715" cy="426.926" r="28.715"/>
	<circle fill="#231815" cx="28.714" cy="28.586" r="28.598"/>
	<path fill="#231815" d="M257.179,192.042c0,19.437-11.438,35.196-25.545,35.196H93.974c-14.109,0-25.545-15.759-25.545-35.196
		v-7.822c0-19.438,11.436-35.196,25.545-35.196h137.66c14.107,0,25.545,15.758,25.545,35.196V192.042z"/>
	<rect x="28.714" y="227.247" fill="#231815" width="907.272" height="171.894"/>
	<rect x="0.059" y="28.587" fill="#231815" width="57.311" height="398.338"/>
	<rect x="907.332" y="28.587" fill="#231815" width="57.311" height="398.338"/>
	<path fill="#231815" d="M889.142,235.067c0,10.366-8.405,18.771-18.771,18.771H299.935c-10.367,0-18.771-8.405-18.771-18.771
		v-23.985c0-10.367,8.403-18.771,18.771-18.771H870.37c10.366,0,18.771,8.404,18.771,18.771V235.067z"/>
</g>
</svg>
